<?xml version="1.0" encoding="utf-8"?>
<!-- Generator: Adobe Illustrator 23.0.1, SVG Export Plug-In . SVG Version: 6.00 Build 0)  -->
<svg version="1.1" id="Calque_1" xmlns="http://www.w3.org/2000/svg" xmlns:xlink="http://www.w3.org/1999/xlink" x="0px" y="0px"
	 viewBox="0 0 300 300" style="enable-background:new 0 0 300 300;" xml:space="preserve">
<style type="text/css">
	.st0{fill:#FFFFFF;}
	.st1{fill:#23538E;}
</style>
<path class="st0" d="M294,291.1c-96.5,0-193,0-289.6,0c0-95.6,0-191.2,0-287.1c96.4,0,193,0,289.6,0C294,99.6,294,195.3,294,291.1z
	 M176.3,272.4c5-9.3,9.1-16.9,13.4-24.9c8.5,4.3,16.2,8.2,25.3,12.8c-10.5-33.4-20.5-65.3-30.4-97c38.2-23.1,45.6-61.5,36.3-89.9
	C210.5,42.2,181.6,21,148.7,21c-33.3-0.1-62.5,21.2-72.7,52.7c-11.2,34.9,1.6,64.8,39.5,91.5c-9,24.3-18.1,48.7-27.8,74.5
	c9.5-4.3,17.6-7.9,25.8-11.5c4.1,8.6,7.9,16.3,12.2,25.3c8.2-21.9,15.9-42.1,23.5-62.4c0.5,0.1,1.1,0.2,1.6,0.3
	C159.1,217.8,167.5,244.3,176.3,272.4z"/>
<path class="st1" d="M176.3,272.4c-8.9-28.1-17.2-54.6-25.6-81c-0.5-0.1-1.1-0.2-1.6-0.3c-7.6,20.3-15.3,40.5-23.5,62.4
	c-4.3-8.9-8.1-16.7-12.2-25.3c-8.2,3.7-16.3,7.3-25.8,11.5c9.6-25.8,18.7-50.3,27.8-74.5c-37.9-26.7-50.7-56.6-39.5-91.5
	c10.2-31.6,39.5-52.8,72.7-52.7c32.9,0.1,61.9,21.2,72.2,52.5c9.3,28.4,1.9,66.8-36.3,89.9c10,31.7,19.9,63.6,30.4,97
	c-9.1-4.6-16.8-8.5-25.3-12.8C185.4,255.5,181.3,263.1,176.3,272.4z M209.1,96.5c0-33.5-27.1-60.4-60.8-60.3
	c-33.9,0.1-60.7,26.9-60.6,60.6c0.1,33.2,27.1,59.9,60.5,60C181.9,156.8,209.1,130,209.1,96.5z"/>
<polygon class="st1" points="178.4,138.3 148.1,122.7 118,138.8 123.5,105.2 98.9,81.7 132.6,76.6 147.5,46 162.8,76.3 196.6,81 
	172.4,104.9 "/>
</svg>
