<?xml version="1.0" encoding="utf-8"?>
<!-- Generator: Adobe Illustrator 23.0.1, SVG Export Plug-In . SVG Version: 6.00 Build 0)  -->
<svg version="1.1" id="Calque_1" xmlns="http://www.w3.org/2000/svg" xmlns:xlink="http://www.w3.org/1999/xlink" x="0px" y="0px"
	 viewBox="0 0 1280 700" style="enable-background:new 0 0 1280 700;" xml:space="preserve">
<style type="text/css">
	.st0{fill:#23538E;}
	.st1{fill:#D6D6D6;}
	.st2{fill:#EFEFEF;}
	.st3{fill:#A1A1A1;}
	.st4{fill:none;}
	.st5{font-family:'ArialMT';}
	.st6{font-size:13.9104px;}
	.st7{fill:#FFFFFF;}
	.st8{font-size:36.9226px;}
	.st9{fill:#FFD4A7;stroke:#F6BF96;stroke-miterlimit:10;}
	.st10{fill:#FFDAD6;stroke:#F6BF96;stroke-miterlimit:10;}
	.st11{fill:#F6BF96;stroke:#F6BF96;stroke-miterlimit:10;}
</style>
<g>
	<rect x="-9.5" y="-85.6" class="st0" width="1298" height="886.1"/>
	<path d="M1288-85.1v885.3H-9V-85.1H1288 M1289-86H-10v887h1299V-86L1289-86z"/>
</g>
<g>
	<g>
		<g>
			<path class="st1" d="M475.6,320.6c-3.4,0-6.2-2.7-6.2-6.2v-28c0-3.4,2.7-6.2,6.2-6.2h28c3.4,0,6.2,2.7,6.2,6.2v28
				c0,3.4-2.7,6.2-6.2,6.2H475.6z"/>
			<path class="st1" d="M503.6,280.6c3.2,0,5.8,2.6,5.8,5.8v28c0,3.2-2.6,5.8-5.8,5.8h-28c-3.2,0-5.8-2.6-5.8-5.8v-28
				c0-3.2,2.6-5.8,5.8-5.8H503.6 M503.6,279.8h-28c-3.7,0-6.6,2.9-6.6,6.6v28c0,3.7,2.9,6.6,6.6,6.6h28c3.7,0,6.6-2.9,6.6-6.6v-28
				C510.2,282.7,507.3,279.8,503.6,279.8L503.6,279.8z"/>
		</g>
		<g>
			<path class="st2" d="M479.2,317c-3.4,0-6.2-2.7-6.2-6.2v-20.3c0-3.4,2.7-6.2,6.2-6.2h20.3c3.4,0,6.2,2.7,6.2,6.2v20.3
				c0,3.4-2.7,6.2-6.2,6.2H479.2z"/>
			<path class="st3" d="M499.5,284.8c3.2,0,5.8,2.6,5.8,5.8v20.3c0,3.2-2.6,5.8-5.8,5.8h-20.3c-3.2,0-5.8-2.6-5.8-5.8v-20.3
				c0-3.2,2.6-5.8,5.8-5.8H499.5 M499.5,283.9h-20.3c-3.7,0-6.6,2.9-6.6,6.6v20.3c0,3.7,2.9,6.6,6.6,6.6h20.3c3.7,0,6.6-2.9,6.6-6.6
				v-20.3C506.1,286.8,503.2,283.9,499.5,283.9L499.5,283.9z"/>
		</g>
	</g>
	<rect x="479.3" y="293.3" class="st4" width="14.6" height="14.6"/>
	<text transform="matrix(-1 0 0 1 493.8813 303.1475)" class="st5 st6">A</text>
</g>
<g>
	<g>
		<g>
			<path class="st1" d="M513.8,365.2c-3.4,0-6.2-2.7-6.2-6.2v-28c0-3.4,2.7-6.2,6.2-6.2h28c3.4,0,6.2,2.7,6.2,6.2v28
				c0,3.4-2.7,6.2-6.2,6.2H513.8z"/>
			<path class="st1" d="M541.8,325.3c3.2,0,5.8,2.6,5.8,5.8v28c0,3.2-2.6,5.8-5.8,5.8h-28c-3.2,0-5.8-2.6-5.8-5.8v-28
				c0-3.2,2.6-5.8,5.8-5.8L541.8,325.3 M541.8,324.4h-28c-3.7,0-6.6,2.9-6.6,6.6v28c0,3.7,2.9,6.6,6.6,6.6h28c3.7,0,6.6-2.9,6.6-6.6
				v-28C548.4,327.4,545.5,324.4,541.8,324.4L541.8,324.4z"/>
		</g>
		<g>
			<path class="st2" d="M517.9,361.6c-3.4,0-6.2-2.7-6.2-6.2v-20.3c0-3.4,2.7-6.2,6.2-6.2h20.3c3.4,0,6.2,2.7,6.2,6.2v20.3
				c0,3.4-2.7,6.2-6.2,6.2H517.9z"/>
			<path class="st3" d="M538.2,329.4c3.2,0,5.8,2.6,5.8,5.8v20.3c0,3.2-2.6,5.8-5.8,5.8h-20.3c-3.2,0-5.8-2.6-5.8-5.8v-20.3
				c0-3.2,2.6-5.8,5.8-5.8H538.2 M538.2,328.6h-20.3c-3.7,0-6.6,2.9-6.6,6.6v20.3c0,3.7,2.9,6.6,6.6,6.6h20.3c3.7,0,6.6-2.9,6.6-6.6
				v-20.3C544.8,331.5,541.9,328.6,538.2,328.6L538.2,328.6z"/>
		</g>
	</g>
	<rect x="523.5" y="337.9" class="st4" width="14.6" height="14.6"/>
	<text transform="matrix(1 0 0 1 523.5054 347.7979)" class="st5 st6">S</text>
</g>
<g>
	<g>
		<g>
			<path class="st1" d="M717.7,360.5c-3.4,0-6.2-2.7-6.2-6.2v-28c0-3.4,2.7-6.2,6.2-6.2h28c3.4,0,6.2,2.7,6.2,6.2v28
				c0,3.4-2.7,6.2-6.2,6.2H717.7z"/>
			<path class="st1" d="M745.7,320.6c3.2,0,5.8,2.6,5.8,5.8v28c0,3.2-2.6,5.8-5.8,5.8h-28c-3.2,0-5.8-2.6-5.8-5.8v-28
				c0-3.2,2.6-5.8,5.8-5.8L745.7,320.6 M745.7,319.7h-28c-3.7,0-6.6,2.9-6.6,6.6v28c0,3.7,2.9,6.6,6.6,6.6h28c3.7,0,6.6-2.9,6.6-6.6
				v-28C752.3,322.6,749.4,319.7,745.7,319.7L745.7,319.7z"/>
		</g>
		<g>
			<path class="st2" d="M721.9,356.9c-3.4,0-6.2-2.7-6.2-6.2v-20.3c0-3.4,2.7-6.2,6.2-6.2h20.3c3.4,0,6.2,2.7,6.2,6.2v20.3
				c0,3.4-2.7,6.2-6.2,6.2L721.9,356.9L721.9,356.9z"/>
			<path class="st3" d="M742.1,324.7c3.2,0,5.8,2.6,5.8,5.8v20.3c0,3.2-2.6,5.8-5.8,5.8h-20.3c-3.2,0-5.8-2.6-5.8-5.8v-20.3
				c0-3.2,2.6-5.8,5.8-5.8H742.1 M742.1,323.8h-20.3c-3.7,0-6.6,2.9-6.6,6.6v20.3c0,3.7,2.9,6.6,6.6,6.6h20.3c3.7,0,6.6-2.9,6.6-6.6
				v-20.3C748.7,326.8,745.8,323.8,742.1,323.8L742.1,323.8z"/>
		</g>
	</g>
	<rect x="727.4" y="333.2" class="st4" width="14.6" height="14.6"/>
	<text transform="matrix(1 0 0 1 727.4385 343.0762)" class="st5 st6">L</text>
</g>
<g>
	<g>
		<g>
			<path class="st1" d="M756.8,316.3c-3.4,0-6.2-2.7-6.2-6.2v-28c0-3.4,2.7-6.2,6.2-6.2h28c3.4,0,6.2,2.7,6.2,6.2v28
				c0,3.4-2.7,6.2-6.2,6.2H756.8z"/>
			<path class="st1" d="M784.8,276.4c3.2,0,5.8,2.6,5.8,5.8v28c0,3.2-2.6,5.8-5.8,5.8h-28c-3.2,0-5.8-2.6-5.8-5.8v-28
				c0-3.2,2.6-5.8,5.8-5.8H784.8 M784.8,275.5h-28c-3.7,0-6.6,2.9-6.6,6.6v28c0,3.7,2.9,6.6,6.6,6.6h28c3.7,0,6.6-2.9,6.6-6.6v-28
				C791.4,278.4,788.5,275.5,784.8,275.5L784.8,275.5z"/>
		</g>
		<g>
			<path class="st2" d="M760.9,312.7c-3.4,0-6.2-2.7-6.2-6.2v-20.3c0-3.4,2.7-6.2,6.2-6.2h20.3c3.4,0,6.2,2.7,6.2,6.2v20.3
				c0,3.4-2.7,6.2-6.2,6.2H760.9z"/>
			<path class="st3" d="M781.2,280.5c3.2,0,5.8,2.6,5.8,5.8v20.3c0,3.2-2.6,5.8-5.8,5.8h-20.3c-3.2,0-5.8-2.6-5.8-5.8v-20.3
				c0-3.2,2.6-5.8,5.8-5.8H781.2 M781.2,279.6h-20.3c-3.7,0-6.6,2.9-6.6,6.6v20.3c0,3.7,2.9,6.6,6.6,6.6h20.3c3.7,0,6.6-2.9,6.6-6.6
				v-20.3C787.8,282.5,784.9,279.6,781.2,279.6L781.2,279.6z"/>
		</g>
	</g>
	<rect x="766.5" y="289" class="st4" width="14.6" height="14.6"/>
	<text transform="matrix(1 0 0 1 766.5078 298.855)" class="st5 st6">P</text>
</g>
<rect x="132" y="52.5" class="st4" width="1000.3" height="115.2"/>
<text transform="matrix(1 0 0 1 131.9546 78.7461)" class="st7 st5 st8">Restez appuyer sur les touches :  A, S, L et P de votre clavier</text>
<g>
	<path class="st9" d="M1141.5,675.6c-10.1-4-30.4-11.8-35.1-14.9c-12.5-8.3-79.3-53-90.8-59c-7.5-3.9-17.2-4.6-25.4-7
		c-10.9-3.2-49.1-13.7-57.1-16.3c-10-3.3-20.4-5.2-30.3-8.8c-8.3-3-16.7-6.1-24.5-10.4c-7-3.9-58.3-32-66.5-36.1
		c-7-3.5-15.1-6-24-6.8c-7.6-0.7-18.8,2.6-25.3-2.2c-13.2-9.7,0.9-19.4,10.6-24.6c7-3.9,16-7.3,24.1-8.3c5.8-0.8,12.7,0.8,18.9,1
		c8.9,0.4,17.2,3.9,25.9,5.4c4.7,0.8,7.8,1.4,12.4,3.2c-5.6-6.4-11.1-14.3-17.3-20.3c-8-7.6-31.3-30.3-35.1-34.4
		c-1.9-2.1-8.9-9.6-10.5-11.2c-7.1-7.2-34.4-44-38-48.9c-5.4-7.2-14.9-20.8-10-30.6c2.2-4.4,8.2-7.1,12.6-7.7
		c6.6-0.9,12.1,0.5,16.9,6.3c8.6,10.4,20,19.4,30.1,28.8c9.6,9,20.1,17,29.9,26c10,9.2,21,19.2,32.9,25.7c3.9,2.1,6.1,2.7,10.6,2.7
		c-3.1-8.8-10.7-14.4-17.1-21.2c-6.4-6.8-49.3-52.2-55.6-59.1c-6.4-7-12.9-13.4-18.7-21c-3.8-4.9-7.5-9.9-9.4-16.1
		c-1.9-6.3-2.6-9.1,1.7-13.6c2.8-3,7-6.4,11.2-7.1c5.8-0.9,12.1,1.4,16.9,4.6c5.4,3.7,72.3,62.1,77.4,68.5
		c5.2,6.5,12.4,11,17.9,17.2c2.2,2.5,13.8,14.9,16.8,11.4c2.9-3.3,6.1-17.2,8.1-19.2c4.8-4.8,16.4-8.2,25.1-6.6
		c6.6,1.3,11.9,8,17.5,11.6c0.3-5.3,0.2-5.7,4.6-8.8c3.5-2.4,19.1-3.9,25.2-3.3c7,0.9,32.6,8.2,38.2,11.7c5.3,3.3,10,7.6,14.1,12.5
		c7.4,8.6,13,18,19.2,27c6.9,9.9,14.6,21.1,19.7,30.2c6.2,11.1,9.3,24,17.3,34.2c5.2,6.5,32.6,25.9,38.6,31.5
		c5.5,5.2,3.2,21.7,3.2,28.8c0,5.1-0.6,25.7-0.1,31.1c0.9,9.4,3.7,50.7,3.3,62.3C1151.3,641.4,1144,674.1,1141.5,675.6z"/>
	<path class="st10" d="M776.2,311.2c1.7,1.6,3.5,3.3,5.2,5c1.3,1.2,3.1,2.6,4.7,2c0.9-0.3,10.9-11,15.5-15c0.6-0.5,1.3-1.1,1.5-2
		c0.3-1-0.3-2.1-1-2.7c-0.7-0.8-4.9-7.1-7-8.5c-3-2.1-6.6-0.9-9.6,0.3c-3,1.3-5.5,3.4-7.8,5.8c-0.9,0.9-1.9,2-2.5,3.2
		c-0.9,1.8-1,3.9-0.8,6C774.8,307.2,774.7,309.8,776.2,311.2z"/>
	<path class="st10" d="M746.6,365.7c1.7,1.4,2.7,1.4,4.9,2.1c0.4,0.2,0.9,0.3,1.3,0.2c0.3-0.1,0.7-0.3,0.9-0.6
		c3.8-3.6,12-13.5,12.8-14.3c0.8-0.9,1.3-2.1,0.9-3.3c-0.3-0.8-5-6.4-6.4-10.5c-0.2-0.4-0.6-0.8-1.1-0.7c-2.7,0.1-5.6-0.3-8.2,0.4
		c-2.9,0.9-5.8,2.5-7.5,5c-2.2,3.1-2.6,7.3-1.8,11C743.2,358.7,743.6,363.3,746.6,365.7z"/>
	<path class="st10" d="M799.1,517.7c-1.8-2.1-3.4-4.5-5.5-6.3c-4.5-3.9-10.6-5-16.5-5.3c-3.1-0.2-6.3-0.2-9.3,0.7s-5.8,2.7-7.2,5.6"
		/>
	<path class="st11" d="M966.3,375.4c6.5,5.7,13.7,10.6,21.2,14.8"/>
	<path class="st11" d="M914.9,392.6c5.2,4.1,10.9,7.7,16.9,10.7"/>
	<path class="st11" d="M850.8,487.6c12.4,12.5,22.7,27,30.7,42.7"/>
</g>
<g>
	<path class="st9" d="M124.5,685.1c10.1-4,30.4-11.8,35.1-14.9c12.5-8.3,79.3-53,90.8-59c7.5-3.9,17.2-4.6,25.4-7
		c10.9-3.2,49.1-13.7,57.1-16.3c10-3.3,20.4-5.2,30.3-8.8c8.3-3,16.7-6.1,24.5-10.4c7-3.9,58.3-32,66.5-36.1c7-3.5,15.1-6,24-6.8
		c7.6-0.7,18.8,2.6,25.3-2.2c13.2-9.7-0.9-19.4-10.6-24.6c-7-3.9-16-7.3-24.1-8.3c-5.8-0.8-12.7,0.8-18.9,1
		c-8.9,0.4-17.2,3.9-25.9,5.4c-4.7,0.8-7.8,1.4-12.4,3.2c5.6-6.4,11.1-14.3,17.3-20.3c8-7.6,31.3-30.3,35.1-34.4
		c1.9-2.1,8.9-9.6,10.5-11.2c7.1-7.2,34.4-44,38-48.9c5.4-7.2,14.9-20.8,10-30.6c-2.2-4.4-8.2-7.1-12.6-7.7
		c-6.6-0.9-12.1,0.5-16.9,6.3c-8.6,10.4-20,19.4-30.1,28.8c-9.6,9-20.1,17-29.9,26c-10,9.2-21,19.2-32.9,25.7
		c-3.9,2.1-6.1,2.7-10.6,2.7c3.1-8.8,10.7-14.4,17.1-21.2c6.4-6.8,49.3-52.2,55.6-59.1c6.4-7,12.9-13.4,18.7-21
		c3.8-4.9,7.5-9.9,9.4-16.1c1.9-6.3,2.6-9.1-1.7-13.6c-2.8-3-7-6.4-11.2-7.1c-5.8-0.9-12.1,1.4-16.9,4.6
		c-5.4,3.7-72.3,62.1-77.4,68.5c-5.2,6.5-12.4,11-17.9,17.2c-2.2,2.5-13.8,14.9-16.8,11.4c-2.9-3.3-6.1-17.2-8.1-19.2
		c-4.8-4.8-16.4-8.2-25.1-6.6c-6.6,1.3-11.9,8-17.5,11.6c-0.3-5.3-0.2-5.7-4.6-8.8c-3.5-2.4-19.1-3.9-25.2-3.3
		c-7,0.9-32.6,8.2-38.2,11.7c-5.3,3.3-10,7.6-14.1,12.5c-7.4,8.6-13,18-19.2,27c-6.9,9.9-14.6,21.1-19.7,30.2
		c-6.2,11.1-9.3,24-17.3,34.2c-5.2,6.5-32.6,25.9-38.6,31.5c-5.5,5.2-3.2,21.7-3.2,28.8c0,5.1,0.6,25.7,0.1,31.1
		c-0.9,9.4-3.7,50.7-3.3,62.3C114.7,650.8,122,683.5,124.5,685.1z"/>
	<path class="st10" d="M489.8,320.7c-1.7,1.6-3.5,3.3-5.2,5c-1.3,1.2-3.1,2.6-4.7,2c-0.9-0.3-10.9-11-15.5-15
		c-0.6-0.5-1.3-1.1-1.5-2c-0.3-1,0.3-2.1,1-2.7c0.7-0.8,4.9-7.1,7-8.5c3-2.1,6.6-0.9,9.6,0.3c3,1.3,5.5,3.4,7.8,5.8
		c0.9,0.9,1.9,2,2.5,3.2c0.9,1.8,1,3.9,0.8,6C491.1,316.6,491.3,319.3,489.8,320.7z"/>
	<path class="st10" d="M519.4,375.2c-1.7,1.4-2.7,1.4-4.9,2.1c-0.4,0.2-0.9,0.3-1.3,0.2c-0.3-0.1-0.7-0.3-0.9-0.6
		c-3.8-3.6-12-13.5-12.8-14.3c-0.8-0.9-1.3-2.1-0.9-3.3c0.3-0.8,5-6.4,6.4-10.5c0.2-0.4,0.6-0.8,1.1-0.7c2.7,0.1,5.6-0.3,8.2,0.4
		c2.9,0.9,5.8,2.5,7.5,5c2.2,3.1,2.6,7.3,1.8,11C522.8,368.1,522.4,372.8,519.4,375.2z"/>
	<path class="st10" d="M466.7,527.2c1.8-2.1,3.4-4.5,5.5-6.3c4.5-3.9,10.6-5,16.5-5.3c3.1-0.2,6.3-0.2,9.3,0.7
		c3,0.9,5.8,2.7,7.2,5.6"/>
	<path class="st11" d="M299.7,384.9c-6.5,5.7-13.7,10.6-21.2,14.8"/>
	<path class="st11" d="M351.1,402.1c-5.2,4.1-10.9,7.7-16.9,10.7"/>
	<path class="st11" d="M415.1,497c-12.4,12.5-22.7,27-30.7,42.7"/>
</g>
</svg>
