<?xml version="1.0" encoding="utf-8"?>
<!-- Generator: Adobe Illustrator 23.0.1, SVG Export Plug-In . SVG Version: 6.00 Build 0)  -->
<svg version="1.1" id="Calque_1" xmlns="http://www.w3.org/2000/svg" xmlns:xlink="http://www.w3.org/1999/xlink" x="0px" y="0px"
	 viewBox="0 0 1280 700" style="enable-background:new 0 0 1280 700;" xml:space="preserve">
<style type="text/css">
	.st0{fill:#23538E;}
	.st1{fill:#D6D6D6;}
	.st2{fill:#EFEFEF;}
	.st3{fill:#A1A1A1;}
	.st4{fill:none;}
	.st5{font-family:'ArialMT';}
	.st6{font-size:8.4181px;}
	.st7{fill:#FFD4A7;stroke:#F6BF96;stroke-miterlimit:10;}
	.st8{fill:#FFDAD6;stroke:#F6BF96;stroke-miterlimit:10;}
	.st9{fill:#F6BF96;stroke:#F6BF96;stroke-miterlimit:10;}
	.st10{fill:#E8E5E3;stroke:#F6BF96;stroke-miterlimit:10;}
	.st11{fill:#193F6E;stroke:#193F6E;stroke-miterlimit:10;}
	.st12{fill:#FFFFFF;}
	.st13{font-size:32.2002px;}
</style>
<g>
	<rect x="-21.5" y="-18.2" class="st0" width="1312" height="772.8"/>
	<path d="M1290-17.8v772.1H-21V-17.8H1290 M1291-18.6H-22V755h1313V-18.6L1291-18.6z"/>
</g>
<g>
	<g>
		<g>
			<g>
				<path class="st1" d="M549.9,472.1c-2,0-3.6-1.6-3.6-3.6v-16.9c0-2,1.6-3.6,3.6-3.6h16.9c2,0,3.6,1.6,3.6,3.6v16.9
					c0,2-1.6,3.6-3.6,3.6H549.9z"/>
				<path class="st1" d="M566.9,448.3c1.8,0,3.2,1.4,3.2,3.2v16.9c0,1.8-1.4,3.2-3.2,3.2h-16.9c-1.8,0-3.2-1.4-3.2-3.2v-16.9
					c0-1.8,1.4-3.2,3.2-3.2H566.9 M566.9,447.5h-16.9c-2.2,0-4,1.8-4,4v16.9c0,2.2,1.8,4,4,4h16.9c2.2,0,4-1.8,4-4v-16.9
					C570.9,449.3,569.1,447.5,566.9,447.5L566.9,447.5z"/>
			</g>
			<g>
				<path class="st2" d="M552.1,469.9c-2,0-3.6-1.6-3.6-3.6v-12.3c0-2,1.6-3.6,3.6-3.6h12.3c2,0,3.6,1.6,3.6,3.6v12.3
					c0,2-1.6,3.6-3.6,3.6H552.1z"/>
				<path class="st3" d="M564.4,450.8c1.8,0,3.2,1.4,3.2,3.2v12.3c0,1.8-1.4,3.2-3.2,3.2h-12.3c-1.8,0-3.2-1.4-3.2-3.2V454
					c0-1.8,1.4-3.2,3.2-3.2H564.4 M564.4,450h-12.3c-2.2,0-4,1.8-4,4v12.3c0,2.2,1.8,4,4,4h12.3c2.2,0,4-1.8,4-4V454
					C568.4,451.8,566.6,450,564.4,450L564.4,450z"/>
			</g>
		</g>
		<rect x="552.2" y="455.7" class="st4" width="8.8" height="8.8"/>
		<text transform="matrix(-1 0 0 1 561.0361 461.6582)" class="st5 st6">A</text>
	</g>
	<g>
		<g>
			<g>
				<path class="st1" d="M573.1,499.1c-2,0-3.6-1.6-3.6-3.6v-16.9c0-2,1.6-3.6,3.6-3.6H590c2,0,3.6,1.6,3.6,3.6v16.9
					c0,2-1.6,3.6-3.6,3.6H573.1z"/>
				<path class="st1" d="M590,475.3c1.8,0,3.2,1.4,3.2,3.2v16.9c0,1.8-1.4,3.2-3.2,3.2h-16.9c-1.8,0-3.2-1.4-3.2-3.2v-16.9
					c0-1.8,1.4-3.2,3.2-3.2H590 M590,474.6h-16.9c-2.2,0-4,1.8-4,4v16.9c0,2.2,1.8,4,4,4H590c2.2,0,4-1.8,4-4v-16.9
					C594.1,476.3,592.3,474.6,590,474.6L590,474.6z"/>
			</g>
			<g>
				<path class="st2" d="M575.6,496.9c-2,0-3.6-1.6-3.6-3.6V481c0-2,1.6-3.6,3.6-3.6h12.3c2,0,3.6,1.6,3.6,3.6v12.3
					c0,2-1.6,3.6-3.6,3.6H575.6z"/>
				<path class="st3" d="M587.8,477.8c1.8,0,3.2,1.4,3.2,3.2v12.3c0,1.8-1.4,3.2-3.2,3.2h-12.3c-1.8,0-3.2-1.4-3.2-3.2V481
					c0-1.8,1.4-3.2,3.2-3.2H587.8 M587.8,477h-12.3c-2.2,0-4,1.8-4,4v12.3c0,2.2,1.8,4,4,4h12.3c2.2,0,4-1.8,4-4V481
					C591.9,478.8,590.1,477,587.8,477L587.8,477z"/>
			</g>
		</g>
		<rect x="578.9" y="482.7" class="st4" width="8.8" height="8.8"/>
		<text transform="matrix(1 0 0 1 578.9634 488.6777)" class="st5 st6">S</text>
	</g>
	<g>
		<g>
			<g>
				<path class="st1" d="M696.5,496.2c-2,0-3.6-1.6-3.6-3.6v-16.9c0-2,1.6-3.6,3.6-3.6h16.9c2,0,3.6,1.6,3.6,3.6v16.9
					c0,2-1.6,3.6-3.6,3.6H696.5z"/>
				<path class="st1" d="M713.4,472.4c1.8,0,3.2,1.4,3.2,3.2v16.9c0,1.8-1.4,3.2-3.2,3.2h-16.9c-1.8,0-3.2-1.4-3.2-3.2v-16.9
					c0-1.8,1.4-3.2,3.2-3.2H713.4 M713.4,471.7h-16.9c-2.2,0-4,1.8-4,4v16.9c0,2.2,1.8,4,4,4h16.9c2.2,0,4-1.8,4-4v-16.9
					C717.5,473.5,715.7,471.7,713.4,471.7L713.4,471.7z"/>
			</g>
			<g>
				<path class="st2" d="M699,494c-2,0-3.6-1.6-3.6-3.6v-12.3c0-2,1.6-3.6,3.6-3.6h12.3c2,0,3.6,1.6,3.6,3.6v12.3
					c0,2-1.6,3.6-3.6,3.6H699z"/>
				<path class="st3" d="M711.2,475c1.8,0,3.2,1.4,3.2,3.2v12.3c0,1.8-1.4,3.2-3.2,3.2H699c-1.8,0-3.2-1.4-3.2-3.2v-12.3
					c0-1.8,1.4-3.2,3.2-3.2H711.2 M711.2,474.2H699c-2.2,0-4,1.8-4,4v12.3c0,2.2,1.8,4,4,4h12.3c2.2,0,4-1.8,4-4v-12.3
					C715.3,476,713.5,474.2,711.2,474.2L711.2,474.2z"/>
			</g>
		</g>
		<rect x="702.4" y="479.8" class="st4" width="8.8" height="8.8"/>
		<text transform="matrix(1 0 0 1 702.377 485.8213)" class="st5 st6">L</text>
	</g>
	<g>
		<g>
			<g>
				<path class="st1" d="M720.2,469.5c-2,0-3.6-1.6-3.6-3.6V449c0-2,1.6-3.6,3.6-3.6h16.9c2,0,3.6,1.6,3.6,3.6v16.9
					c0,2-1.6,3.6-3.6,3.6H720.2z"/>
				<path class="st1" d="M737.1,445.7c1.8,0,3.2,1.4,3.2,3.2v17c0,1.8-1.4,3.2-3.2,3.2h-16.9c-1.8,0-3.2-1.4-3.2-3.2V449
					c0-1.8,1.4-3.2,3.2-3.2L737.1,445.7 M737.1,444.9h-16.9c-2.2,0-4,1.8-4,4v17c0,2.2,1.8,4,4,4h16.9c2.2,0,4-1.8,4-4V449
					C741.1,446.7,739.3,444.9,737.1,444.9L737.1,444.9z"/>
			</g>
			<g>
				<path class="st2" d="M722.6,467.3c-2,0-3.6-1.6-3.6-3.6v-12.3c0-2,1.6-3.6,3.6-3.6h12.3c2,0,3.6,1.6,3.6,3.6v12.3
					c0,2-1.6,3.6-3.6,3.6H722.6z"/>
				<path class="st3" d="M734.9,448.1c1.8,0,3.2,1.4,3.2,3.2v12.3c0,1.8-1.4,3.2-3.2,3.2h-12.3c-1.8,0-3.2-1.4-3.2-3.2v-12.3
					c0-1.8,1.4-3.2,3.2-3.2H734.9 M734.9,447.4h-12.3c-2.2,0-4,1.8-4,4v12.3c0,2.2,1.8,4,4,4h12.3c2.2,0,4-1.8,4-4v-12.3
					C738.9,449.2,737.1,447.4,734.9,447.4L734.9,447.4z"/>
			</g>
		</g>
		<rect x="726" y="453.1" class="st4" width="8.8" height="8.8"/>
		<text transform="matrix(1 0 0 1 726.0205 459.0596)" class="st5 st6">P</text>
	</g>
	<g>
		<path class="st7" d="M953,687.1c-6.1-2.5-18.4-7.1-21.3-9c-7.6-5.1-47.9-32.1-54.9-35.6c-4.6-2.4-10.4-2.8-15.4-4.3
			c-6.6-1.9-29.7-8.2-34.5-9.9c-6.1-2-12.4-3.1-18.3-5.3c-5-1.8-10.1-3.7-14.8-6.3c-4.2-2.3-35.3-19.4-40.2-21.9
			c-4.3-2.1-9.1-3.7-14.5-4.1c-4.6-0.4-11.4,1.6-15.3-1.3c-8-5.8,0.6-11.8,6.4-14.9c4.3-2.3,9.7-4.4,14.6-5
			c3.5-0.4,7.7,0.4,11.4,0.6c5.4,0.2,10.4,2.3,15.7,3.2c2.8,0.5,4.7,0.8,7.5,1.9c-3.4-3.8-6.7-8.7-10.5-12.3
			c-4.9-4.6-18.9-18.3-21.3-20.8c-1.1-1.2-5.4-5.8-6.3-6.7c-4.3-4.4-20.8-26.7-23-29.6c-3.3-4.4-9.1-12.6-6.1-18.5
			c1.3-2.6,4.9-4.3,7.6-4.6c4-0.5,7.3,0.3,10.3,3.7c5.2,6.3,12.1,11.8,18.2,17.4c5.8,5.5,12.1,10.3,18.1,15.7
			c6,5.5,12.7,11.6,19.8,15.6c2.3,1.3,3.7,1.6,6.4,1.6c-1.9-5.4-6.5-8.7-10.3-12.8c-3.8-4-29.9-31.6-33.6-35.7
			c-3.9-4.3-7.8-8.1-11.3-12.7c-2.3-3-4.6-6-5.7-9.7c-1.1-3.7-1.6-5.5,1-8.2c1.7-1.8,4.2-3.9,6.7-4.3c3.4-0.5,7.3,0.8,10.3,2.8
			c3.3,2.2,43.7,37.6,46.9,41.5c3.1,4,7.5,6.7,10.9,10.4c1.3,1.5,8.3,9.1,10.2,6.9c1.7-2,3.7-10.4,4.9-11.6c2.9-2.9,9.9-5,15.1-4
			c4,0.7,7.2,4.8,10.6,7c0.1-3.2,0.1-3.4,2.8-5.3c2.1-1.5,11.5-2.4,15.3-1.9c4.2,0.5,19.8,5,23.1,7c3.2,1.9,6,4.6,8.5,7.6
			c4.5,5.2,7.9,10.9,11.6,16.3c4.2,6,8.8,12.8,11.9,18.3c3.7,6.7,5.6,14.5,10.5,20.7c3.1,3.9,19.8,15.7,23.4,19.1
			c3.4,3.1,1.9,13.1,1.9,17.4c0,3.1-0.4,15.5-0.1,18.8c0.5,5.7,2.2,30.7,1.9,37.7C958.9,666.4,954.5,686.1,953,687.1z"/>
		<path class="st8" d="M731.8,466.6c1,1,2.1,2,3.1,3c0.8,0.7,1.9,1.6,2.8,1.2c0.6-0.2,6.6-6.7,9.4-9.1c0.4-0.3,0.7-0.7,0.9-1.2
			c0.1-0.6-0.1-1.3-0.6-1.6c-0.4-0.4-3-4.3-4.3-5.2c-1.9-1.2-4-0.6-5.8,0.2s-3.3,2.1-4.7,3.5c-0.6,0.6-1.1,1.2-1.5,1.9
			c-0.6,1.1-0.7,2.4-0.4,3.6C731,464.1,730.9,465.7,731.8,466.6z"/>
		<path class="st8" d="M713.9,499.6c1,0.8,1.6,0.8,2.9,1.2c0.2,0.1,0.5,0.1,0.7,0.1c0.2-0.1,0.4-0.2,0.6-0.4
			c2.3-2.2,7.3-8.2,7.7-8.7c0.4-0.5,0.7-1.3,0.5-1.9c-0.1-0.4-3-3.9-3.9-6.4c-0.1-0.3-0.4-0.4-0.7-0.4c-1.6,0.1-3.4-0.2-4.9,0.3
			c-1.8,0.5-3.4,1.5-4.6,3c-1.3,1.9-1.6,4.4-1.1,6.7C711.9,495.2,712.1,498.1,713.9,499.6z"/>
		<path class="st8" d="M745.8,591.5c-1.1-1.3-2-2.7-3.3-3.8c-2.7-2.3-6.4-3-10-3.2c-1.9-0.1-3.8-0.1-5.6,0.4
			c-1.8,0.5-3.5,1.6-4.3,3.4"/>
		<path class="st9" d="M846.9,505.4c4,3.4,8.2,6.4,12.8,8.9"/>
		<path class="st9" d="M815.8,515.8c3.2,2.5,6.6,4.6,10.2,6.5"/>
		<path class="st9" d="M777,573.3c7.5,7.6,13.7,16.3,18.6,25.8"/>
	</g>
	<g>
		<path class="st7" d="M337.5,692.8c6.1-2.5,18.4-7.1,21.3-9c7.6-5.1,47.9-32.1,54.9-35.6c4.6-2.4,10.4-2.8,15.4-4.3
			c6.6-1.9,29.7-8.2,34.5-9.9c6.1-2,12.4-3.1,18.3-5.3c5-1.8,10.1-3.7,14.8-6.3c4.2-2.3,35.3-19.4,40.2-21.9
			c4.3-2.1,9.1-3.7,14.5-4.1c4.6-0.4,11.4,1.6,15.3-1.3c8-5.8-0.6-11.8-6.4-14.9c-4.3-2.3-9.7-4.4-14.6-5c-3.5-0.4-7.7,0.4-11.4,0.6
			c-5.4,0.2-10.4,2.3-15.7,3.2c-2.8,0.5-4.7,0.8-7.5,1.9c3.4-3.8,6.7-8.7,10.5-12.3c4.9-4.6,18.9-18.3,21.3-20.8
			c1.1-1.2,5.4-5.8,6.3-6.7c4.3-4.4,20.8-26.7,23-29.6c3.3-4.4,9.1-12.6,6.1-18.5c-1.3-2.6-4.9-4.3-7.6-4.6c-4-0.5-7.3,0.3-10.3,3.7
			c-5.2,6.3-12.1,11.8-18.2,17.4c-5.8,5.5-12.1,10.3-18.1,15.7c-6,5.5-12.7,11.6-19.8,15.6c-2.3,1.3-3.7,1.6-6.4,1.6
			c1.9-5.4,6.5-8.7,10.3-12.8c3.8-4,29.9-31.6,33.6-35.7c3.9-4.3,7.8-8.1,11.3-12.7c2.3-3,4.6-6,5.7-9.7c1.1-3.7,1.6-5.5-1-8.2
			c-1.7-1.8-4.2-3.9-6.7-4.3c-3.4-0.5-7.3,0.8-10.3,2.8c-3.3,2.2-43.7,37.6-46.9,41.5c-3.1,4-7.5,6.7-10.9,10.4
			c-1.3,1.5-8.3,9.1-10.2,6.9c-1.7-2-3.7-10.4-4.9-11.6c-2.9-2.9-9.9-5-15.1-4c-4,0.7-7.2,4.8-10.6,7c-0.1-3.2-0.1-3.4-2.8-5.3
			c-2.1-1.5-11.5-2.4-15.3-1.9c-4.2,0.5-19.8,5-23.1,7c-3.2,1.9-6,4.6-8.5,7.6c-4.5,5.2-7.9,10.9-11.6,16.3
			c-4.2,6-8.8,12.8-11.9,18.3c-3.7,6.7-5.6,14.5-10.5,20.7c-3.1,3.9-19.8,15.7-23.4,19.1c-3.4,3.1-1.9,13.1-1.9,17.4
			c0,3.1,0.4,15.5,0.1,18.8c-0.5,5.7-2.2,30.7-1.9,37.7C331.6,672,336,691.9,337.5,692.8z"/>
		<path class="st8" d="M558.6,472.3c-1,1-2.1,2-3.1,3c-0.8,0.7-1.9,1.6-2.8,1.2c-0.6-0.2-6.6-6.7-9.4-9.1c-0.4-0.3-0.7-0.7-0.9-1.2
			c-0.1-0.6,0.1-1.3,0.6-1.6c0.4-0.4,3-4.3,4.3-5.2c1.9-1.2,4-0.6,5.8,0.2c1.8,0.7,3.3,2.1,4.7,3.5c0.6,0.6,1.1,1.2,1.5,1.9
			c0.6,1.1,0.7,2.4,0.4,3.6C559.4,469.8,559.5,471.4,558.6,472.3z"/>
		<path class="st8" d="M576.5,505.3c-1,0.8-1.6,0.8-2.9,1.2c-0.2,0.1-0.5,0.1-0.7,0.1c-0.2-0.1-0.4-0.2-0.6-0.4
			c-2.3-2.2-7.3-8.2-7.7-8.7c-0.4-0.5-0.7-1.3-0.5-1.9c0.1-0.4,3-3.9,3.9-6.4c0.1-0.3,0.4-0.4,0.7-0.4c1.6,0.1,3.4-0.2,4.9,0.3
			c1.8,0.5,3.4,1.5,4.6,3c1.3,1.9,1.6,4.4,1.1,6.7C578.6,501,578.3,503.9,576.5,505.3z"/>
		<path class="st8" d="M544.6,597.2c1.1-1.3,2-2.7,3.3-3.8c2.7-2.3,6.4-3,10-3.2c1.9-0.1,3.8-0.1,5.6,0.4c1.8,0.6,3.5,1.6,4.3,3.4"
			/>
		<path class="st9" d="M443.5,511.1c-4,3.4-8.2,6.4-12.8,8.9"/>
		<path class="st9" d="M474.6,521.5c-3.2,2.5-6.6,4.6-10.2,6.5"/>
		<path class="st9" d="M513.4,579c-7.5,7.6-13.7,16.3-18.6,25.8"/>
	</g>
</g>
<path class="st10" d="M869.5,376.9H409.5c-8,0-14.5-6.5-14.5-14.5V91.2c0-8,6.5-14.5,14.5-14.5h459.9c8,0,14.5,6.5,14.5,14.5v271.2
	C884,370.4,877.5,376.9,869.5,376.9z"/>
<path class="st11" d="M697.3,251.5l-77.1,47.6c-1.2,0.7-2.8-0.1-2.8-1.6v-95.2c0-1.4,1.6-2.3,2.8-1.6l77.1,47.6
	C698.5,249.1,698.5,250.8,697.3,251.5z"/>
<path class="st10" d="M575.9,414.4H399.1c-1.4,0-2.5-1.1-2.5-2.5v-20.3c0-1.4,1.1-2.5,2.5-2.5h176.8c1.4,0,2.5,1.1,2.5,2.5v20.3
	C578.5,413.2,577.4,414.4,575.9,414.4z"/>
<path class="st11" d="M445.6,409.9H402c-0.6,0-1-0.4-1-1v-13.7c0-0.6,0.4-1,1-1h43.7c0.6,0,1,0.4,1,1v13.7
	C446.7,409.4,446.2,409.9,445.6,409.9z"/>
<rect x="517.5" y="37.1" class="st4" width="254.6" height="43.2"/>
<text transform="matrix(1 0 0 1 517.4575 43.9731)" class="st12 st5 st13">La video se lance</text>
</svg>
