<?xml version="1.0" encoding="utf-8"?>
<!-- Generator: Adobe Illustrator 23.0.1, SVG Export Plug-In . SVG Version: 6.00 Build 0)  -->
<svg version="1.1" id="Calque_1" xmlns="http://www.w3.org/2000/svg" xmlns:xlink="http://www.w3.org/1999/xlink" x="0px" y="0px"
	 viewBox="0 0 1280 700" style="enable-background:new 0 0 1280 700;" xml:space="preserve">
<style type="text/css">
	.st0{fill:#23538E;}
	.st1{fill:#E8E5E3;stroke:#F6BF96;stroke-miterlimit:10;}
	.st2{fill:#193F6E;stroke:#193F6E;stroke-miterlimit:10;}
	.st3{fill:#193F6E;}
	.st4{fill:#FEFEFE;}
	.st5{fill:#23538E;stroke:#23538E;stroke-miterlimit:10;}
	.st6{fill:none;}
	.st7{fill:#FAFDFF;}
	.st8{font-family:'ArialMT';}
	.st9{font-size:18.9698px;}
	.st10{fill:#FFFFFF;}
	.st11{font-size:38.843px;}
</style>
<rect x="-22" y="-55.2" class="st0" width="1315" height="932.2"/>
<path class="st1" d="M572,630.8H358.7c-1.7,0-3.1-1.4-3.1-3.1v-24.5c0-1.7,1.4-3.1,3.1-3.1H572c1.7,0,3.1,1.4,3.1,3.1v24.5
	C575.1,629.5,573.8,630.8,572,630.8z"/>
<path class="st2" d="M564.5,625.4H365.7c-2.7,0-4.8-0.5-4.8-1.3v-16.5c0-0.7,2.1-1.3,4.8-1.3h198.7c2.7,0,4.8,0.5,4.8,1.3v16.5
	C569.2,624.9,567.2,625.4,564.5,625.4z"/>
<path class="st1" d="M928,585.7H373.1c-9.7,0-17.5-7.9-17.5-17.5V241c0-9.7,7.9-17.5,17.5-17.5H928c9.7,0,17.5,7.9,17.5,17.5v327.2
	C945.5,577.8,937.6,585.7,928,585.7z"/>
<rect x="412.1" y="304.3" class="st3" width="480.6" height="171.6"/>
<rect x="412.1" y="346.7" class="st4" width="480.6" height="96.7"/>
<g>
	<path class="st5" d="M462.9,437.7c-2.1-6.6-4.1-13-6.2-19.8c-2,5.3-3.8,10.2-5.7,15.4c-0.9-1.9-1.7-3.4-2.3-5.1
		c-0.4-0.8-0.7-0.9-1.4-0.5c-1.5,0.8-3.3,1.5-5.1,2.3c2.1-5.5,3.9-10.8,6-16c0.5-1.4,0.4-1.9-0.9-2.7c-7-4.2-10.3-12.6-7.9-20.5
		c2.4-7.9,9.8-13,18.2-12.6c7.9,0.4,14.9,6.4,16.5,14.4c1.4,7.2-1.6,14.5-7.9,18.5c-1,0.6-1.1,1.2-0.7,2.1
		c2.3,7.1,4.5,14.3,6.9,21.8c-1.4-0.7-2.4-1.3-3.4-1.8c-2.5-1.4-2.5-1.4-3.8,1.2C464.2,435.3,463.6,436.4,462.9,437.7z"/>
	<path class="st4" d="M470.6,396.1c0,7.9-6.4,14.3-14.4,14.3c-7.9,0-14.3-6.4-14.2-14.4c0-7.9,6.4-14.3,14.4-14.2
		C464.3,381.8,470.6,388.1,470.6,396.1z"/>
	<path class="st5" d="M447.4,392.8c1.9,0,3.8,0,5.7,0c0.8,0,1.2-0.2,1.4-1c0.5-1.8,1.2-3.6,1.9-5.8c0.7,2.3,1.4,4,1.9,5.8
		c0.3,0.8,0.6,1.1,1.4,1c1.9,0,3.8,0,5.8,0.3c-1.4,1-2.6,2.1-4.1,2.9c-1.3,0.7-1.4,1.5-0.9,2.9c0.6,1.5,1.1,3.2,1.7,5.1
		c-1.9-1.4-3.4-2.4-5-3.6c-0.6-0.5-1.1-0.5-1.7,0c-1.5,1.2-3.2,2.3-5,3.6c0.5-1.6,1-3,1.4-4.3c0.8-2.5,0.8-2.5-1.4-4.2
		c-1.1-0.8-2.3-1.6-3.3-2.4C447.3,393,447.3,392.9,447.4,392.8z"/>
</g>
<rect x="429.9" y="321.2" class="st6" width="129.4" height="17.4"/>
<text transform="matrix(1 0 0 1 429.8359 334.6221)" class="st7 st8 st9">Félicitations !</text>
<text transform="matrix(1 0 0 1 197.0791 108.2466)" class="st10 st8 st11">A la fin de la video, votre formation video est validée !</text>
</svg>
