<?xml version="1.0" encoding="utf-8"?>
<!-- Generator: Adobe Illustrator 23.0.1, SVG Export Plug-In . SVG Version: 6.00 Build 0)  -->
<svg version="1.1" id="Calque_1" xmlns="http://www.w3.org/2000/svg" xmlns:xlink="http://www.w3.org/1999/xlink" x="0px" y="0px"
	 viewBox="0 0 200 50" style="enable-background:new 0 0 200 50;" xml:space="preserve">
<style type="text/css">
	.st0{fill:#FFFFFF;}
</style>
<g>
	<path class="st0" d="M33.3,29.2c-5,3-8.4,2.9-11.1-0.2c-2.4-2.7-2.5-6.8-0.2-9.6c2.6-3.2,6-3.5,11-0.7c0-2.7,0-5.3-0.1-7.8
		c0-0.4-0.8-0.8-1.3-1c-6.5-2.2-13.9,1.1-17.1,7.6c-2.6,5.3-1.8,12.1,2.1,16.4c4.1,4.6,9.3,6.1,15.3,4.4c1.1-0.3,1.5-0.8,1.5-2
		C33.2,34,33.3,31.7,33.3,29.2z"/>
	<path class="st0" d="M35,11.5c0,8.6,0,16.8,0,25.4c4.6-3.2,6.9-7.2,6.9-12.5C42,19,39.6,14.7,35,11.5z"/>
</g>
<g>
	<path class="st0" d="M68.7,32.9c-1,0.5-2.9,1-5.3,1c-5.7,0-10-3.6-10-10.2C53.4,17.3,57.7,13,64,13c2.5,0,4.1,0.5,4.8,0.9L68.1,16
		c-1-0.5-2.4-0.8-4.1-0.8c-4.7,0-7.9,3-7.9,8.3c0,5,2.8,8.1,7.8,8.1c1.6,0,3.2-0.3,4.3-0.8L68.7,32.9z"/>
	<path class="st0" d="M85.4,26.2c0,5.4-3.7,7.7-7.2,7.7c-3.9,0-7-2.9-7-7.5c0-4.9,3.2-7.7,7.2-7.7C82.5,18.7,85.4,21.7,85.4,26.2z
		 M73.8,26.3c0,3.2,1.8,5.6,4.4,5.6c2.5,0,4.4-2.4,4.4-5.6c0-2.5-1.2-5.6-4.3-5.6C75.2,20.7,73.8,23.6,73.8,26.3z"/>
	<path class="st0" d="M89.3,23c0-1.5,0-2.7-0.1-3.9h2.3l0.2,2.4h0.1c0.7-1.4,2.4-2.7,4.8-2.7c2,0,5.1,1.2,5.1,6.2v8.7H99v-8.4
		c0-2.3-0.9-4.3-3.4-4.3c-1.7,0-3.1,1.2-3.5,2.7C92,23.9,92,24.4,92,24.8v8.7h-2.6C89.3,33.6,89.3,23,89.3,23z"/>
	<path class="st0" d="M116.9,33c-0.7,0.4-2.2,0.8-4.2,0.8c-4.4,0-7.2-3-7.2-7.4c0-4.5,3.1-7.7,7.8-7.7c1.6,0,2.9,0.4,3.7,0.8l-0.6,2
		c-0.6-0.4-1.6-0.7-3.1-0.7c-3.3,0-5.1,2.5-5.1,5.5c0,3.4,2.2,5.4,5,5.4c1.5,0,2.5-0.4,3.2-0.7L116.9,33z"/>
	<path class="st0" d="M120.7,23.6c0-1.7,0-3.2-0.1-4.5h2.3l0.1,2.9h0.1c0.7-2,2.3-3.2,4-3.2c0.3,0,0.5,0,0.8,0.1v2.5
		c-0.3-0.1-0.5-0.1-0.9-0.1c-1.9,0-3.2,1.4-3.5,3.4c-0.1,0.4-0.1,0.8-0.1,1.2v7.7h-2.6L120.7,23.6L120.7,23.6z"/>
	<path class="st0" d="M132.3,26.8c0.1,3.6,2.3,5,5,5c1.9,0,3-0.3,4-0.8l0.4,1.9c-0.9,0.4-2.5,0.9-4.8,0.9c-4.5,0-7.1-2.9-7.1-7.3
		s2.6-7.8,6.8-7.8c4.7,0,6,4.2,6,6.8c0,0.5-0.1,1-0.1,1.2H132.3z M140,24.9c0-1.7-0.7-4.3-3.7-4.3c-2.7,0-3.8,2.5-4.1,4.3H140z
		 M140.6,12.8l-3.7,4.3h-1.9l2.6-4.3C137.7,12.8,140.6,12.8,140.6,12.8z"/>
	<path class="st0" d="M149.6,14.9V19h3.8v2h-3.8v7.8c0,1.8,0.5,2.8,2,2.8c0.7,0,1.2-0.1,1.5-0.2l0.1,2c-0.5,0.2-1.3,0.4-2.3,0.4
		c-1.2,0-2.2-0.4-2.9-1.1c-0.8-0.8-1-2.1-1-3.8V21h-2.3v-2h2.3v-3.5L149.6,14.9z"/>
	<path class="st0" d="M160,15c0,0.9-0.6,1.6-1.7,1.6c-0.9,0-1.6-0.7-1.6-1.6c0-0.9,0.7-1.6,1.6-1.6C159.3,13.3,160,14,160,15z
		 M157,33.6V19h2.6v14.5H157z"/>
	<path class="st0" d="M177.8,26.2c0,5.4-3.7,7.7-7.2,7.7c-3.9,0-7-2.9-7-7.5c0-4.9,3.2-7.7,7.2-7.7C175,18.7,177.8,21.7,177.8,26.2z
		 M166.3,26.3c0,3.2,1.8,5.6,4.4,5.6c2.5,0,4.4-2.4,4.4-5.6c0-2.5-1.2-5.6-4.4-5.6S166.3,23.6,166.3,26.3z"/>
	<path class="st0" d="M181.8,23c0-1.5,0-2.7-0.1-3.9h2.3l0.1,2.4h0.1c0.7-1.4,2.4-2.7,4.8-2.7c2,0,5.1,1.2,5.1,6.2v8.7h-2.6v-8.4
		c0-2.3-0.9-4.3-3.4-4.3c-1.7,0-3.1,1.2-3.5,2.7c-0.1,0.3-0.2,0.8-0.2,1.2v8.7h-2.6L181.8,23L181.8,23z"/>
</g>
<g>
	<path class="st0" d="M47.5,46.6c0.1-0.6,0.1-1.1,0.1-1.5c0-0.6,0.1-1.5,0.1-2.7c0-0.9,0-1.5,0-1.8v-0.4c0.9,0,1.7,0,2.4,0l1.3,0
		l0.8,0c0,0.5-0.1,0.8-0.1,1l-0.7,0l-0.3,0h-0.4h-0.7l-1,0l-0.1,1.7l0.8,0c0.6,0,1,0,1.2,0l0.6,0c0,0.4,0,0.7,0,1c-0.6,0-1,0-1.3,0
		c-0.4,0-0.9,0-1.3,0L49,45.9l0,0.4v0.2l-0.7,0C48.3,46.6,48,46.6,47.5,46.6z"/>
	<path class="st0" d="M55.6,41.7c0.4,0,0.7,0.1,1,0.2c0.3,0.1,0.6,0.3,0.8,0.5c0.2,0.2,0.4,0.5,0.5,0.8c0.1,0.3,0.2,0.6,0.2,1
		c0,0.4-0.1,0.7-0.2,1s-0.3,0.6-0.5,0.9c-0.2,0.2-0.5,0.4-0.9,0.6c-0.4,0.1-0.7,0.2-1.1,0.2c-0.4,0-0.7-0.1-1-0.2
		c-0.3-0.1-0.6-0.3-0.8-0.5c-0.2-0.2-0.4-0.5-0.5-0.8s-0.2-0.6-0.2-1c0-0.3,0.1-0.7,0.2-1c0.1-0.3,0.3-0.6,0.5-0.8s0.5-0.4,0.9-0.6
		C54.8,41.7,55.2,41.7,55.6,41.7z M55.6,42.6c-0.3,0-0.5,0.1-0.7,0.2c-0.2,0.1-0.4,0.3-0.5,0.6c-0.1,0.3-0.2,0.6-0.2,0.9
		c0,0.3,0,0.5,0.1,0.7c0.1,0.2,0.2,0.4,0.4,0.5c0.2,0.1,0.4,0.2,0.7,0.2c0.3,0,0.5-0.1,0.7-0.2c0.2-0.1,0.4-0.3,0.5-0.6
		c0.1-0.3,0.2-0.6,0.2-0.9c0-0.3,0-0.5-0.1-0.7c-0.1-0.2-0.2-0.4-0.4-0.5C56.1,42.7,55.9,42.6,55.6,42.6z"/>
	<path class="st0" d="M59,46.6l0.1-2.3l0-1.3c0-0.3,0-0.5,0-0.8c0,0,0-0.2,0-0.5c0.3,0,0.5,0,0.7,0c0.2,0,0.4,0,0.6,0l0,0.7
		c0.1-0.2,0.2-0.3,0.3-0.4c0.1-0.1,0.2-0.2,0.3-0.2c0.1-0.1,0.2-0.1,0.4-0.1c0.1,0,0.3,0,0.4,0c0.1,0,0.3,0,0.4,0c0,0.3,0,0.7,0,1.1
		c-0.2,0-0.4-0.1-0.5-0.1c-0.2,0-0.3,0-0.5,0.1c-0.1,0.1-0.3,0.1-0.4,0.3c-0.1,0.1-0.2,0.3-0.3,0.4c-0.1,0.1-0.1,0.3-0.1,0.5
		c0,0.2,0,0.4-0.1,0.8c0,0.4,0,0.8,0,1.2c0,0.1,0,0.3,0,0.6c-0.2,0-0.5,0-0.7,0C59.5,46.6,59.3,46.6,59,46.6z"/>
	<path class="st0" d="M62.8,46.6c0-0.5,0.1-1.3,0.1-2.4c0-1.1,0.1-1.9,0.1-2.4c0.3,0,0.5,0,0.7,0c0.2,0,0.4,0,0.6,0l0,0.8
		c0.1-0.1,0.2-0.3,0.3-0.4c0.1-0.1,0.2-0.2,0.3-0.3c0.1-0.1,0.3-0.1,0.5-0.2c0.2,0,0.4-0.1,0.6-0.1c0.1,0,0.3,0,0.4,0
		c0.1,0,0.3,0.1,0.4,0.1c0.1,0,0.2,0.1,0.3,0.2c0.1,0.1,0.1,0.1,0.2,0.2c0.1,0.1,0.1,0.2,0.2,0.3c0.1-0.1,0.1-0.2,0.2-0.3
		c0.1-0.1,0.1-0.2,0.2-0.2c0.1-0.1,0.2-0.1,0.3-0.2c0.1-0.1,0.3-0.1,0.4-0.1c0.2,0,0.3,0,0.5,0c0.3,0,0.5,0,0.8,0.1
		c0.2,0.1,0.4,0.2,0.6,0.4c0.1,0.2,0.2,0.4,0.2,0.7c0,0.2,0,0.4,0,0.7c0,0.3,0,0.8-0.1,1.4c0,0.7,0,1.2-0.1,1.5c-0.2,0-0.4,0-0.6,0
		c-0.2,0-0.5,0-0.7,0c0-0.4,0.1-0.8,0.1-1.3l0.1-1.1c0-0.3,0-0.5,0-0.7c0-0.2,0-0.4-0.1-0.5c-0.1-0.1-0.2-0.2-0.3-0.2
		s-0.2-0.1-0.4-0.1c-0.1,0-0.3,0-0.4,0.1c-0.1,0.1-0.2,0.1-0.3,0.3c-0.1,0.1-0.2,0.3-0.2,0.4c-0.1,0.2-0.1,0.4-0.1,0.7
		c0,0.3,0,0.7-0.1,1.1l0,1.3c-0.3,0-0.5,0-0.7,0c-0.2,0-0.4,0-0.7,0c0-0.2,0.1-0.7,0.1-1.5c0-0.8,0.1-1.3,0.1-1.5c0-0.1,0-0.3,0-0.4
		c0-0.1-0.1-0.2-0.1-0.3c-0.1-0.1-0.1-0.2-0.2-0.2c-0.1,0-0.2-0.1-0.3-0.1c-0.2,0-0.4,0.1-0.6,0.2c-0.2,0.1-0.3,0.3-0.4,0.6
		c-0.1,0.2-0.1,0.7-0.2,1.4c0,0.7-0.1,1.3-0.1,1.7c-0.3,0-0.5,0-0.7,0C63.3,46.6,63.1,46.6,62.8,46.6z"/>
	<path class="st0" d="M71.8,42.8c0-0.2,0.1-0.4,0.1-0.5c0-0.1,0-0.2,0.1-0.4c0.4-0.1,0.8-0.2,1.1-0.2s0.6-0.1,1-0.1
		c0.3,0,0.7,0,1,0.1c0.3,0.1,0.5,0.2,0.7,0.4c0.2,0.2,0.2,0.4,0.2,0.8c0,0.2,0,0.6-0.1,1.4c-0.1,0.7-0.1,1.5-0.1,2.3
		c-0.2,0-0.5,0-0.7,0c-0.2,0-0.4,0-0.7,0c0-0.4,0.1-0.8,0.1-1.3l0.1-1.2c-0.1,0.1-0.2,0.1-0.3,0.2s-0.1,0.1-0.2,0.1
		c-0.1,0-0.2,0.1-0.4,0.1c-0.2,0.1-0.4,0.1-0.5,0.1c-0.1,0-0.2,0.1-0.3,0.1c-0.1,0.1-0.2,0.1-0.2,0.2c-0.1,0.1-0.1,0.1-0.1,0.2
		c0,0.1,0,0.1,0,0.2c0,0.1,0,0.2,0.1,0.3c0.1,0.1,0.2,0.2,0.3,0.2c0.1,0,0.3,0.1,0.4,0.1c0.1,0,0.2,0,0.3,0c0.1,0,0.3-0.1,0.5-0.1
		c-0.1,0.2-0.1,0.4-0.2,0.8c-0.2,0-0.4,0.1-0.5,0.1c-0.1,0-0.3,0-0.4,0c-0.4,0-0.7-0.1-1-0.2c-0.3-0.1-0.4-0.3-0.6-0.5
		c-0.1-0.2-0.2-0.5-0.2-0.7c0-0.1,0-0.3,0.1-0.4c0-0.1,0.1-0.3,0.2-0.4c0.1-0.1,0.2-0.2,0.4-0.3c0.1-0.1,0.4-0.2,0.6-0.3
		c0.3-0.1,0.6-0.2,1.1-0.3c0.1,0,0.2-0.1,0.4-0.1c0.1,0,0.2-0.1,0.3-0.1c0.1,0,0.1-0.1,0.2-0.1c0.1-0.1,0.1-0.1,0.1-0.2
		c0-0.1,0-0.1,0-0.2c0-0.1,0-0.2-0.1-0.3c-0.1-0.1-0.2-0.1-0.3-0.2c-0.1,0-0.3,0-0.4,0C73.2,42.4,72.5,42.6,71.8,42.8z"/>
	<path class="st0" d="M79.9,45.6c0,0.2-0.1,0.5-0.2,1c-0.3,0.1-0.5,0.1-0.6,0.1c-0.2,0-0.3,0-0.4,0c-0.2,0-0.4,0-0.6-0.1
		c-0.2,0-0.3-0.1-0.5-0.2c-0.1-0.1-0.2-0.2-0.2-0.4c0-0.2-0.1-0.3-0.1-0.5c0,0,0-0.1,0-0.2s0-0.3,0-0.7l0.1-2h-0.7
		c0-0.2,0-0.5,0-0.9h0.7c0-0.2,0-0.5,0.1-0.9l0.6-0.1c0.1,0,0.3-0.1,0.7-0.2c0,0.4,0,0.8,0,1.2H80c0,0.4,0,0.7,0,0.9h-1.2
		c-0.1,1.3-0.1,2-0.1,2.2c0,0.2,0,0.3,0.1,0.5c0,0.1,0.1,0.2,0.2,0.2c0.1,0,0.2,0.1,0.3,0.1c0.1,0,0.2,0,0.2,0
		C79.6,45.7,79.7,45.7,79.9,45.6z"/>
	<path class="st0" d="M80.6,46.6c0-0.5,0.1-0.9,0.1-1.2c0-0.5,0.1-1.1,0.1-1.8c0-0.7,0-1.3,0.1-1.9c0.3,0,0.5,0,0.7,0
		c0.1,0,0.4,0,0.7,0c0,0.6-0.1,1.1-0.1,1.6c0,0.5,0,1.1-0.1,1.7c0,0.6,0,1.2,0,1.5c-0.3,0-0.5,0-0.7,0
		C81.2,46.6,80.9,46.6,80.6,46.6z M80.9,40.9c0-0.3,0-0.6,0-0.7V40c0.3,0,0.5,0,0.7,0c0.2,0,0.5,0,0.7,0c0,0.1,0,0.2,0,0.3l0,0.6
		c-0.2,0-0.5,0-0.7,0S81.1,40.9,80.9,40.9z"/>
	<path class="st0" d="M85.8,41.7c0.4,0,0.7,0.1,1,0.2c0.3,0.1,0.6,0.3,0.8,0.5c0.2,0.2,0.4,0.5,0.5,0.8c0.1,0.3,0.2,0.6,0.2,1
		c0,0.4-0.1,0.7-0.2,1s-0.3,0.6-0.5,0.9c-0.2,0.2-0.5,0.4-0.9,0.6c-0.4,0.1-0.7,0.2-1.1,0.2c-0.4,0-0.7-0.1-1-0.2
		c-0.3-0.1-0.6-0.3-0.8-0.5c-0.2-0.2-0.4-0.5-0.5-0.8c-0.1-0.3-0.2-0.6-0.2-1c0-0.3,0.1-0.7,0.2-1c0.1-0.3,0.3-0.6,0.5-0.8
		s0.5-0.4,0.9-0.6C85,41.7,85.4,41.7,85.8,41.7z M85.8,42.6c-0.3,0-0.5,0.1-0.7,0.2c-0.2,0.1-0.4,0.3-0.5,0.6
		c-0.1,0.3-0.2,0.6-0.2,0.9c0,0.3,0,0.5,0.1,0.7c0.1,0.2,0.2,0.4,0.4,0.5c0.2,0.1,0.4,0.2,0.7,0.2c0.3,0,0.5-0.1,0.7-0.2
		c0.2-0.1,0.4-0.3,0.5-0.6c0.1-0.3,0.2-0.6,0.2-0.9c0-0.3,0-0.5-0.1-0.7c-0.1-0.2-0.2-0.4-0.4-0.5C86.3,42.7,86.1,42.6,85.8,42.6z"
		/>
	<path class="st0" d="M89.2,46.6c0.1-0.7,0.1-1.5,0.2-2.4c0-0.9,0.1-1.7,0.1-2.4c0.3,0,0.5,0,0.7,0c0.2,0,0.4,0,0.7,0l-0.1,0.8
		c0.1-0.1,0.2-0.2,0.3-0.3c0.1-0.1,0.2-0.2,0.3-0.2c0.1-0.1,0.2-0.1,0.4-0.2c0.1,0,0.3-0.1,0.4-0.1c0.2,0,0.3,0,0.5,0
		c0.3,0,0.6,0,0.8,0.1c0.3,0.1,0.5,0.2,0.6,0.3c0.2,0.2,0.3,0.3,0.3,0.5c0.1,0.2,0.1,0.4,0.1,0.6c0,0.1,0,0.2,0,0.4l-0.1,2.1
		c0,0.3,0,0.6,0,0.9c-0.3,0-0.5,0-0.6,0c-0.2,0-0.5,0-0.7,0c0-0.3,0.1-0.8,0.1-1.4c0-0.7,0.1-1.1,0.1-1.4c0-0.3,0-0.5-0.1-0.6
		c-0.1-0.2-0.2-0.3-0.4-0.3c-0.2-0.1-0.3-0.1-0.5-0.1c-0.2,0-0.4,0-0.5,0.1s-0.3,0.2-0.4,0.3c-0.1,0.1-0.2,0.3-0.3,0.5
		c-0.1,0.2-0.1,0.6-0.2,1.1c0,0.5-0.1,1.1-0.1,1.8c-0.2,0-0.5,0-0.7,0C89.7,46.6,89.4,46.6,89.2,46.6z"/>
	<path class="st0" d="M102.2,45.5c0,0.2-0.1,0.5-0.2,1c-0.3,0.1-0.6,0.1-0.9,0.1c-0.2,0-0.5,0-0.7,0c-0.4,0-0.8,0-1.1-0.1
		c-0.3-0.1-0.6-0.2-0.9-0.5c-0.2-0.2-0.4-0.5-0.5-0.8c-0.1-0.3-0.2-0.7-0.2-1c0-0.4,0.1-0.8,0.2-1.1c0.1-0.4,0.3-0.7,0.6-0.9
		c0.2-0.2,0.5-0.4,0.8-0.5c0.3-0.1,0.6-0.1,1-0.1c0.3,0,0.6,0,0.9,0.1c0.3,0.1,0.5,0.2,0.7,0.4c0.2,0.2,0.3,0.4,0.5,0.7
		c0.1,0.3,0.2,0.5,0.2,0.9c0,0.1,0,0.3,0,0.5l-3.5,0c0,0.1,0,0.2,0,0.3c0,0.2,0,0.4,0.1,0.6c0.1,0.2,0.2,0.3,0.3,0.5
		c0.1,0.1,0.3,0.2,0.5,0.3c0.2,0.1,0.4,0.1,0.6,0.1c0.2,0,0.5,0,0.7-0.1C101.5,45.7,101.8,45.6,102.2,45.5z M99.1,43.6l2.2,0
		c0-0.2,0-0.3,0-0.3c0-0.1,0-0.2-0.1-0.2c0-0.1-0.1-0.2-0.1-0.2c-0.1-0.1-0.1-0.1-0.2-0.2c-0.1,0-0.2-0.1-0.3-0.1
		c-0.1,0-0.2,0-0.3,0c-0.1,0-0.3,0-0.4,0.1c-0.1,0-0.2,0.1-0.3,0.2c-0.1,0.1-0.2,0.2-0.3,0.3c-0.1,0.1-0.1,0.2-0.1,0.3
		C99.2,43.3,99.1,43.5,99.1,43.6z"/>
	<path class="st0" d="M103.3,46.6c0.1-0.7,0.1-1.5,0.2-2.4c0-0.9,0.1-1.7,0.1-2.4c0.3,0,0.5,0,0.7,0c0.2,0,0.4,0,0.7,0l-0.1,0.8
		c0.1-0.1,0.2-0.2,0.3-0.3c0.1-0.1,0.2-0.2,0.3-0.2c0.1-0.1,0.2-0.1,0.4-0.2c0.1,0,0.3-0.1,0.4-0.1c0.2,0,0.3,0,0.5,0
		c0.3,0,0.6,0,0.8,0.1c0.3,0.1,0.5,0.2,0.6,0.3c0.2,0.2,0.3,0.3,0.3,0.5c0.1,0.2,0.1,0.4,0.1,0.6c0,0.1,0,0.2,0,0.4l-0.1,2.1
		c0,0.3,0,0.6,0,0.9c-0.3,0-0.5,0-0.6,0c-0.2,0-0.5,0-0.7,0c0-0.3,0.1-0.8,0.1-1.4c0-0.7,0.1-1.1,0.1-1.4c0-0.3,0-0.5-0.1-0.6
		s-0.2-0.3-0.4-0.3c-0.2-0.1-0.3-0.1-0.5-0.1c-0.2,0-0.4,0-0.5,0.1c-0.2,0.1-0.3,0.2-0.4,0.3c-0.1,0.1-0.2,0.3-0.3,0.5
		c-0.1,0.2-0.1,0.6-0.2,1.1c0,0.5-0.1,1.1-0.1,1.8c-0.2,0-0.5,0-0.7,0C103.8,46.6,103.6,46.6,103.3,46.6z"/>
	<path class="st0" d="M112,46.6c0-0.5,0.1-1.5,0.2-2.9c0.1-1.4,0.1-2.6,0.1-3.6c0.3,0,0.6,0,0.7,0c0.2,0,0.4,0,0.7,0l-0.1,1.7
		l-0.2,3.9l0,0.9c-0.3,0-0.5,0-0.7,0C112.6,46.6,112.4,46.6,112,46.6z"/>
	<path class="st0" d="M114.6,46.6c0-0.5,0.1-0.9,0.1-1.2c0-0.5,0.1-1.1,0.1-1.8c0-0.7,0-1.3,0.1-1.9c0.3,0,0.5,0,0.7,0
		c0.1,0,0.4,0,0.7,0c0,0.6-0.1,1.1-0.1,1.6c0,0.5,0,1.1-0.1,1.7c0,0.6,0,1.2,0,1.5c-0.3,0-0.5,0-0.7,0
		C115.1,46.6,114.9,46.6,114.6,46.6z M114.8,40.9c0-0.3,0-0.6,0-0.7V40c0.3,0,0.5,0,0.7,0c0.2,0,0.5,0,0.7,0c0,0.1,0,0.2,0,0.3
		l0,0.6c-0.2,0-0.5,0-0.7,0C115.3,40.9,115.1,40.9,114.8,40.9z"/>
	<path class="st0" d="M117.5,47.6c0.7,0.2,1.3,0.4,1.9,0.4c0.2,0,0.4,0,0.6-0.1c0.2,0,0.3-0.1,0.4-0.2c0.1-0.1,0.2-0.2,0.3-0.4
		c0.1-0.2,0.1-0.3,0.1-0.6c0-0.2,0-0.5,0.1-1c-0.1,0.2-0.2,0.3-0.3,0.4c-0.1,0.1-0.2,0.2-0.4,0.3c-0.1,0.1-0.3,0.1-0.5,0.2
		c-0.2,0-0.4,0.1-0.6,0.1c-0.3,0-0.5,0-0.8-0.1c-0.3-0.1-0.5-0.2-0.7-0.4c-0.2-0.2-0.3-0.4-0.4-0.7c-0.1-0.3-0.2-0.6-0.2-0.9
		c0-0.4,0.1-0.9,0.2-1.2c0.2-0.4,0.4-0.7,0.7-1c0.3-0.3,0.7-0.4,1-0.5c0.4-0.1,0.8-0.1,1.2-0.1c0.2,0,0.5,0,0.8,0
		c0.3,0,0.7,0.1,1.2,0.2l-0.1,1.5l-0.1,1.9l0,1.7c0,0.2,0,0.4-0.1,0.6s-0.1,0.3-0.2,0.5c-0.1,0.1-0.2,0.3-0.3,0.4s-0.3,0.2-0.4,0.3
		c-0.2,0.1-0.4,0.1-0.6,0.2c-0.2,0-0.5,0.1-0.8,0.1c-0.3,0-0.6,0-1-0.1c-0.4,0-0.8-0.1-1.2-0.2L117.5,47.6z M121,42.7
		c-0.3-0.1-0.5-0.1-0.8-0.1c-0.4,0-0.8,0.1-1,0.2c-0.3,0.1-0.5,0.4-0.6,0.7c-0.1,0.3-0.2,0.6-0.2,0.9c0,0.2,0,0.5,0.1,0.7
		c0.1,0.2,0.2,0.4,0.4,0.5c0.2,0.1,0.4,0.2,0.6,0.2c0.2,0,0.3,0,0.5-0.1c0.1-0.1,0.3-0.1,0.4-0.2c0.1-0.1,0.2-0.2,0.3-0.4
		c0.1-0.2,0.1-0.3,0.2-0.5c0-0.2,0.1-0.4,0.1-0.7S120.9,43.1,121,42.7z"/>
	<path class="st0" d="M123.2,46.6c0.1-0.7,0.1-1.5,0.2-2.4c0-0.9,0.1-1.7,0.1-2.4c0.3,0,0.5,0,0.7,0c0.2,0,0.4,0,0.7,0l-0.1,0.8
		c0.1-0.1,0.2-0.2,0.3-0.3c0.1-0.1,0.2-0.2,0.3-0.2c0.1-0.1,0.2-0.1,0.4-0.2c0.1,0,0.3-0.1,0.4-0.1c0.2,0,0.3,0,0.5,0
		c0.3,0,0.6,0,0.8,0.1c0.3,0.1,0.5,0.2,0.6,0.3c0.2,0.2,0.3,0.3,0.3,0.5s0.1,0.4,0.1,0.6c0,0.1,0,0.2,0,0.4l-0.1,2.1
		c0,0.3,0,0.6,0,0.9c-0.3,0-0.5,0-0.6,0c-0.2,0-0.5,0-0.7,0c0-0.3,0.1-0.8,0.1-1.4c0-0.7,0.1-1.1,0.1-1.4c0-0.3,0-0.5-0.1-0.6
		s-0.2-0.3-0.4-0.3c-0.2-0.1-0.3-0.1-0.5-0.1c-0.2,0-0.4,0-0.5,0.1s-0.3,0.2-0.4,0.3c-0.1,0.1-0.2,0.3-0.3,0.5
		c-0.1,0.2-0.1,0.6-0.2,1.1c0,0.5-0.1,1.1-0.1,1.8c-0.2,0-0.5,0-0.7,0C123.8,46.6,123.5,46.6,123.2,46.6z"/>
	<path class="st0" d="M133.8,45.5c0,0.2-0.1,0.5-0.2,1c-0.3,0.1-0.6,0.1-0.9,0.1c-0.2,0-0.5,0-0.7,0c-0.4,0-0.8,0-1.1-0.1
		c-0.3-0.1-0.6-0.2-0.9-0.5c-0.2-0.2-0.4-0.5-0.5-0.8c-0.1-0.3-0.2-0.7-0.2-1c0-0.4,0.1-0.8,0.2-1.1c0.1-0.4,0.3-0.7,0.6-0.9
		c0.2-0.2,0.5-0.4,0.8-0.5c0.3-0.1,0.6-0.1,1-0.1c0.3,0,0.6,0,0.9,0.1c0.3,0.1,0.5,0.2,0.7,0.4c0.2,0.2,0.3,0.4,0.5,0.7
		c0.1,0.3,0.2,0.5,0.2,0.9c0,0.1,0,0.3,0,0.5l-3.5,0c0,0.1,0,0.2,0,0.3c0,0.2,0,0.4,0.1,0.6c0.1,0.2,0.2,0.3,0.3,0.5
		c0.1,0.1,0.3,0.2,0.5,0.3c0.2,0.1,0.4,0.1,0.6,0.1c0.2,0,0.5,0,0.7-0.1C133.2,45.7,133.5,45.6,133.8,45.5z M130.8,43.6l2.2,0
		c0-0.2,0-0.3,0-0.3c0-0.1,0-0.2-0.1-0.2c0-0.1-0.1-0.2-0.1-0.2c-0.1-0.1-0.1-0.1-0.2-0.2c-0.1,0-0.2-0.1-0.3-0.1
		c-0.1,0-0.2,0-0.3,0c-0.1,0-0.3,0-0.4,0.1c-0.1,0-0.2,0.1-0.3,0.2c-0.1,0.1-0.2,0.2-0.3,0.3c-0.1,0.1-0.1,0.2-0.1,0.3
		C130.8,43.3,130.8,43.5,130.8,43.6z"/>
</g>
</svg>
