<?xml version="1.0" encoding="utf-8"?>
<!-- Generator: Adobe Illustrator 23.0.1, SVG Export Plug-In . SVG Version: 6.00 Build 0)  -->
<svg version="1.1" id="Calque_1" xmlns="http://www.w3.org/2000/svg" xmlns:xlink="http://www.w3.org/1999/xlink" x="0px" y="0px"
	 viewBox="0 0 200 50" style="enable-background:new 0 0 200 50;" xml:space="preserve">
<style type="text/css">
	.st0{fill:#193F6E;}
	.st1{fill:#333333;}
</style>
<g>
	<path class="st0" d="M33.26,29.2c-5.02,2.98-8.4,2.88-11.11-0.21c-2.37-2.71-2.46-6.8-0.2-9.59c2.61-3.23,5.95-3.47,11-0.71
		c0-2.67,0.05-5.26-0.06-7.84c-0.01-0.35-0.8-0.8-1.3-0.97c-6.51-2.24-13.89,1.07-17.13,7.63c-2.61,5.29-1.83,12.06,2.06,16.42
		c4.13,4.63,9.27,6.06,15.26,4.44c1.11-0.3,1.53-0.84,1.49-2.01C33.2,34.01,33.26,31.66,33.26,29.2z"/>
	<path class="st0" d="M35,11.47c0,8.55,0,16.81,0,25.4c4.56-3.17,6.9-7.22,6.94-12.45C41.98,18.96,39.63,14.7,35,11.47z"/>
</g>
<g>
	<path class="st1" d="M68.74,32.9c-0.96,0.48-2.88,0.96-5.34,0.96c-5.7,0-9.99-3.6-9.99-10.23c0-6.33,4.29-10.62,10.56-10.62
		c2.52,0,4.11,0.54,4.8,0.9l-0.63,2.13c-0.99-0.48-2.4-0.84-4.08-0.84c-4.74,0-7.89,3.03-7.89,8.34c0,4.95,2.85,8.13,7.77,8.13
		c1.59,0,3.21-0.33,4.26-0.84L68.74,32.9z"/>
	<path class="st1" d="M85.36,26.18c0,5.37-3.72,7.71-7.23,7.71c-3.93,0-6.96-2.88-6.96-7.47c0-4.86,3.18-7.71,7.2-7.71
		C82.54,18.71,85.36,21.74,85.36,26.18z M73.84,26.33c0,3.18,1.83,5.58,4.41,5.58c2.52,0,4.41-2.37,4.41-5.64
		c0-2.46-1.23-5.58-4.35-5.58C75.19,20.69,73.84,23.57,73.84,26.33z"/>
	<path class="st1" d="M89.32,22.97c0-1.5-0.03-2.73-0.12-3.93h2.34l0.15,2.4h0.06c0.72-1.38,2.4-2.73,4.8-2.73
		c2.01,0,5.13,1.2,5.13,6.18v8.67h-2.64v-8.37c0-2.34-0.87-4.29-3.36-4.29c-1.74,0-3.09,1.23-3.54,2.7
		c-0.12,0.33-0.18,0.78-0.18,1.23v8.73h-2.64V22.97z"/>
	<path class="st1" d="M116.95,33.02c-0.69,0.36-2.22,0.84-4.17,0.84c-4.38,0-7.23-2.97-7.23-7.41c0-4.47,3.06-7.71,7.8-7.71
		c1.56,0,2.94,0.39,3.66,0.75l-0.6,2.04c-0.63-0.36-1.62-0.69-3.06-0.69c-3.33,0-5.13,2.46-5.13,5.49c0,3.36,2.16,5.43,5.04,5.43
		c1.5,0,2.49-0.39,3.24-0.72L116.95,33.02z"/>
	<path class="st1" d="M120.67,23.57c0-1.71-0.03-3.18-0.12-4.53h2.31l0.09,2.85h0.12c0.66-1.95,2.25-3.18,4.02-3.18
		c0.3,0,0.51,0.03,0.75,0.09v2.49c-0.27-0.06-0.54-0.09-0.9-0.09c-1.86,0-3.18,1.41-3.54,3.39c-0.06,0.36-0.12,0.78-0.12,1.23v7.74
		h-2.61V23.57z"/>
	<path class="st1" d="M132.28,26.78c0.06,3.57,2.34,5.04,4.98,5.04c1.89,0,3.03-0.33,4.02-0.75l0.45,1.89
		c-0.93,0.42-2.52,0.9-4.83,0.9c-4.47,0-7.14-2.94-7.14-7.32s2.58-7.83,6.81-7.83c4.74,0,6,4.17,6,6.84c0,0.54-0.06,0.96-0.09,1.23
		H132.28z M140.02,24.89c0.03-1.68-0.69-4.29-3.66-4.29c-2.67,0-3.84,2.46-4.05,4.29H140.02z M140.65,12.77l-3.66,4.29h-1.89
		l2.64-4.29H140.65z"/>
	<path class="st1" d="M149.65,14.87v4.17h3.78v2.01h-3.78v7.83c0,1.8,0.51,2.82,1.98,2.82c0.69,0,1.2-0.09,1.53-0.18l0.12,1.98
		c-0.51,0.21-1.32,0.36-2.34,0.36c-1.23,0-2.22-0.39-2.85-1.11c-0.75-0.78-1.02-2.07-1.02-3.78v-7.92h-2.25v-2.01h2.25v-3.48
		L149.65,14.87z"/>
	<path class="st1" d="M159.97,14.96c0.03,0.9-0.63,1.62-1.68,1.62c-0.93,0-1.59-0.72-1.59-1.62c0-0.93,0.69-1.65,1.65-1.65
		C159.34,13.31,159.97,14.03,159.97,14.96z M157.03,33.56V19.04h2.64v14.52H157.03z"/>
	<path class="st1" d="M177.82,26.18c0,5.37-3.72,7.71-7.23,7.71c-3.93,0-6.96-2.88-6.96-7.47c0-4.86,3.18-7.71,7.2-7.71
		C175,18.71,177.82,21.74,177.82,26.18z M166.3,26.33c0,3.18,1.83,5.58,4.41,5.58c2.52,0,4.41-2.37,4.41-5.64
		c0-2.46-1.23-5.58-4.35-5.58C167.65,20.69,166.3,23.57,166.3,26.33z"/>
	<path class="st1" d="M181.78,22.97c0-1.5-0.03-2.73-0.12-3.93H184l0.15,2.4h0.06c0.72-1.38,2.4-2.73,4.8-2.73
		c2.01,0,5.13,1.2,5.13,6.18v8.67h-2.64v-8.37c0-2.34-0.87-4.29-3.36-4.29c-1.74,0-3.09,1.23-3.54,2.7
		c-0.12,0.33-0.18,0.78-0.18,1.23v8.73h-2.64V22.97z"/>
</g>
</svg>
