<?xml version="1.0" encoding="utf-8"?>
<!-- Generator: Adobe Illustrator 23.0.1, SVG Export Plug-In . SVG Version: 6.00 Build 0)  -->
<svg version="1.1" id="Calque_1" xmlns="http://www.w3.org/2000/svg" xmlns:xlink="http://www.w3.org/1999/xlink" x="0px" y="0px"
	 viewBox="0 0 300 300" style="enable-background:new 0 0 300 300;" xml:space="preserve">
<style type="text/css">
	.st0{fill:#193F6E;}
</style>
<g>
	<path class="st0" d="M186.08,181.69c-31.45,18.71-52.67,18.05-69.62-1.33c-14.86-16.99-15.4-42.61-1.26-60.11
		c16.35-20.24,37.29-21.78,68.96-4.47c0-16.72,0.32-32.95-0.38-49.14c-0.09-2.19-5-5.01-8.16-6.1
		c-40.79-14.02-87.08,6.71-107.35,47.84c-16.35,33.18-11.49,75.59,12.92,102.91c25.92,29.01,58.09,38.01,95.68,27.81
		c6.97-1.89,9.61-5.29,9.36-12.6C185.73,211.84,186.08,197.14,186.08,181.69z"/>
	<path class="st0" d="M197,70.59c0,53.58,0,105.39,0,159.23c28.61-19.87,43.28-45.23,43.5-78.04
		C240.74,117.53,226.01,90.81,197,70.59z"/>
</g>
</svg>
