<?xml version="1.0" encoding="utf-8"?>
<!-- Generator: Adobe Illustrator 23.0.1, SVG Export Plug-In . SVG Version: 6.00 Build 0)  -->
<svg version="1.1" id="Calque_1" xmlns="http://www.w3.org/2000/svg" xmlns:xlink="http://www.w3.org/1999/xlink" x="0px" y="0px"
	 viewBox="0 0 300 300" style="enable-background:new 0 0 300 300;" xml:space="preserve">
<style type="text/css">
	.st0{fill:#193F6E;}
</style>
<g>
	<path class="st0" d="M208.7,199.7c-48.8,29-81.7,28-108-2.1c-23-26.4-23.9-66.1-2-93.2c25.4-31.4,57.8-33.8,107-6.9
		c0-25.9,0.5-51.1-0.6-76.2c-0.1-3.4-7.8-7.8-12.7-9.5C129.2-10,57.4,22.2,26,86C0.6,137.4,8.1,203.2,46,245.6
		c40.2,45,90.1,59,148.4,43.1c10.8-2.9,14.9-8.2,14.5-19.5C208.1,246.4,208.7,223.6,208.7,199.7z"/>
	<path class="st0" d="M225.6,27.4c0,83.1,0,163.5,0,247c44.4-30.8,67.1-70.2,67.5-121C293.5,100.2,270.6,58.7,225.6,27.4z"/>
</g>
</svg>
